<svg width="70" height="70" viewBox="0 0 70 70" fill="none" xmlns="http://www.w3.org/2000/svg">
<g filter="url(#filter0_d_202_1908)">
<rect x="2" y="1" width="66" height="66" rx="10" fill="white" shape-rendering="crispEdges"/>
<rect x="2.5" y="1.5" width="65" height="65" rx="9.5" stroke="#EAECF0" shape-rendering="crispEdges"/>
<g clip-path="url(#clip0_202_1908)">
<g clip-path="url(#clip1_202_1908)">
<g clip-path="url(#clip2_202_1908)">
<g clip-path="url(#clip3_202_1908)">
<path d="M33.05 24.5298L27.03 28.4598C25.1 29.7198 25.1 32.5398 27.03 33.7998L33.05 37.7298C34.13 38.4398 35.91 38.4398 36.99 37.7298L42.98 33.7998C44.9 32.5398 44.9 29.7298 42.98 28.4698L36.99 24.5398C35.91 23.8198 34.13 23.8198 33.05 24.5298Z" stroke="#292D32" stroke-width="1.5" stroke-linecap="round" stroke-linejoin="round"/>
<path d="M28.6301 35.0801L28.6201 39.7701C28.6201 41.0401 29.6001 42.4001 30.8001 42.8001L33.9901 43.8601C34.5401 44.0401 35.4501 44.0401 36.0101 43.8601L39.2001 42.8001C40.4001 42.4001 41.3801 41.0401 41.3801 39.7701V35.1301" stroke="#292D32" stroke-width="1.5" stroke-linecap="round" stroke-linejoin="round"/>
<path d="M44.3999 37V31" stroke="#292D32" stroke-width="1.5" stroke-linecap="round" stroke-linejoin="round"/>
</g>
</g>
</g>
</g>
</g>
<defs>
<filter id="filter0_d_202_1908" x="0" y="0" width="70" height="70" filterUnits="userSpaceOnUse" color-interpolation-filters="sRGB">
<feFlood flood-opacity="0" result="BackgroundImageFix"/>
<feColorMatrix in="SourceAlpha" type="matrix" values="0 0 0 0 0 0 0 0 0 0 0 0 0 0 0 0 0 0 127 0" result="hardAlpha"/>
<feOffset dy="1"/>
<feGaussianBlur stdDeviation="1"/>
<feComposite in2="hardAlpha" operator="out"/>
<feColorMatrix type="matrix" values="0 0 0 0 0.0627451 0 0 0 0 0.0941176 0 0 0 0 0.156863 0 0 0 0.05 0"/>
<feBlend mode="normal" in2="BackgroundImageFix" result="effect1_dropShadow_202_1908"/>
<feBlend mode="normal" in="SourceGraphic" in2="effect1_dropShadow_202_1908" result="shape"/>
</filter>
<clipPath id="clip0_202_1908">
<rect width="24" height="24" fill="white" transform="translate(23 22)"/>
</clipPath>
<clipPath id="clip1_202_1908">
<rect width="24" height="24" fill="white" transform="translate(23 22)"/>
</clipPath>
<clipPath id="clip2_202_1908">
<rect width="24" height="24" fill="white" transform="translate(23 22)"/>
</clipPath>
<clipPath id="clip3_202_1908">
<rect width="24" height="24" fill="white" transform="translate(23 22)"/>
</clipPath>
</defs>
</svg>
