<svg width="70" height="70" viewBox="0 0 70 70" fill="none" xmlns="http://www.w3.org/2000/svg">
<g filter="url(#filter0_d_202_1917)">
<rect x="2" y="1" width="66" height="66" rx="10" fill="white" shape-rendering="crispEdges"/>
<rect x="2.5" y="1.5" width="65" height="65" rx="9.5" stroke="#EAECF0" shape-rendering="crispEdges"/>
<g clip-path="url(#clip0_202_1917)">
<g clip-path="url(#clip1_202_1917)">
<g clip-path="url(#clip2_202_1917)">
<g clip-path="url(#clip3_202_1917)">
<path d="M42.26 40.9V29.1C42.26 27.6 41.62 27 40.03 27H38.99C37.4 27 36.76 27.6 36.76 29.1V40.9" stroke="#292D32" stroke-width="1.5" stroke-linecap="round" stroke-linejoin="round"/>
<path d="M28.26 40.9V34.1C28.26 32.6 28.9 32 30.49 32H31.53C33.12 32 33.76 32.6 33.76 34.1V40.9" stroke="#292D32" stroke-width="1.5" stroke-linecap="round" stroke-linejoin="round"/>
<path d="M25 41H45" stroke="#292D32" stroke-width="1.5" stroke-linecap="round" stroke-linejoin="round"/>
</g>
</g>
</g>
</g>
</g>
<defs>
<filter id="filter0_d_202_1917" x="0" y="0" width="70" height="70" filterUnits="userSpaceOnUse" color-interpolation-filters="sRGB">
<feFlood flood-opacity="0" result="BackgroundImageFix"/>
<feColorMatrix in="SourceAlpha" type="matrix" values="0 0 0 0 0 0 0 0 0 0 0 0 0 0 0 0 0 0 127 0" result="hardAlpha"/>
<feOffset dy="1"/>
<feGaussianBlur stdDeviation="1"/>
<feComposite in2="hardAlpha" operator="out"/>
<feColorMatrix type="matrix" values="0 0 0 0 0.0627451 0 0 0 0 0.0941176 0 0 0 0 0.156863 0 0 0 0.05 0"/>
<feBlend mode="normal" in2="BackgroundImageFix" result="effect1_dropShadow_202_1917"/>
<feBlend mode="normal" in="SourceGraphic" in2="effect1_dropShadow_202_1917" result="shape"/>
</filter>
<clipPath id="clip0_202_1917">
<rect width="24" height="24" fill="white" transform="translate(23 22)"/>
</clipPath>
<clipPath id="clip1_202_1917">
<rect width="24" height="24" fill="white" transform="translate(23 22)"/>
</clipPath>
<clipPath id="clip2_202_1917">
<rect width="24" height="24" fill="white" transform="translate(23 22)"/>
</clipPath>
<clipPath id="clip3_202_1917">
<rect width="24" height="24" fill="white" transform="translate(23 22)"/>
</clipPath>
</defs>
</svg>
