<svg width="35" height="41" viewBox="0 0 35 41" fill="none" xmlns="http://www.w3.org/2000/svg">
<path fill-rule="evenodd" clip-rule="evenodd" d="M20.8657 7.89778L21.4942 8.97564L20.1872 9.4941L19.5587 8.41429L20.8657 7.89778ZM29.7716 3.19263L30.0144 3.5805L29.5289 3.75398L29.2883 3.3661L29.7716 3.19263ZM31.7072 0.128633L32.0453 0.732857L31.3214 0.992088L30.9811 0.387865L31.7072 0.128633ZM29.336 -7.62939e-06L29.7716 0.775737L28.8526 1.12073L28.417 0.344984L29.336 -7.62939e-06ZM29.3837 1.59631L29.724 2.20054L28.948 2.50265L28.6099 1.89842L29.3837 1.59631ZM20.818 4.14185L21.3013 5.0053L20.2371 5.39317L19.7516 4.53167L20.818 4.14185ZM22.0274 3.19263L22.3655 3.83974L21.5917 4.14185L21.2536 3.49474L22.0274 3.19263ZM3.63455 8.54488C-1.35054 13.1623 -1.25518 18.9882 4.21543 22.442C4.36064 22.5278 4.50586 22.6135 4.65108 22.7013C4.65108 22.7013 4.60123 22.6135 4.55354 22.5707L7.89356 23.9526C9.68386 24.7283 11.912 25.161 14.2832 25.3754C11.6215 24.8589 8.8624 23.9955 6.73182 22.7013C4.89166 21.5786 3.3918 20.068 3.006 18.1696C2.66571 16.6142 3.15122 15.0608 4.02252 13.6808C4.89166 12.256 6.24848 10.9618 7.70066 9.83909C7.65081 9.75333 7.60312 9.62274 7.60312 9.4941C7.60312 8.97564 8.03878 8.502 8.66733 8.45912C9.29806 8.45912 9.87893 8.80412 9.92661 9.36546C9.92661 9.88197 9.49096 10.3576 8.8624 10.4004C8.61965 10.4004 8.3769 10.4004 8.13631 10.2718C6.73182 11.3497 5.47254 12.5581 4.60123 13.94C3.82745 15.2342 3.3918 16.659 3.68224 18.0819C4.02252 19.8517 5.42485 21.2336 7.11979 22.2686C9.44327 23.6934 12.4929 24.5139 15.3474 25.0304C-0.529087 20.5416 8.76487 13.5931 19.5587 9.75333L18.9778 8.71641L17.7684 9.19199L17.1377 8.11218L18.3493 7.63855L17.6709 6.47298L16.4614 6.94856L15.8307 5.86876L17.0423 5.39317L16.5091 4.44396L15.2498 4.91954L14.6213 3.83974L15.8806 3.3661L15.395 2.2863C10.7004 4.09897 7.11979 5.22165 3.58687 8.54488H3.63455ZM16.2664 25.506V25.2897C16.6066 25.3754 16.9448 25.4631 17.2352 25.506C16.8971 25.506 16.6066 25.506 16.2664 25.506ZM12.3476 7.76719L12.9285 8.80412L11.6215 9.32063L11.3311 8.80412L11.0407 8.28565L12.3476 7.76719ZM13.2666 6.47298L11.9597 6.94856L11.3788 5.86876L12.6858 5.35029L13.3143 6.4301L13.2666 6.47298ZM16.7995 8.97564L17.4281 10.0554L16.1211 10.5739L15.4926 9.4941L16.7995 8.97564ZM14.5736 8.0693L15.2021 9.14911L13.8952 9.66757L13.2666 8.58776L14.5736 8.0693ZM15.9759 7.20585L16.6066 8.28565L15.2997 8.80412L14.669 7.72431L15.9759 7.20585ZM14.9117 5.65241L15.5403 6.73221L14.2333 7.25068L13.6047 6.17087L14.9117 5.65241ZM13.5571 3.5805L14.1856 4.66031L12.8787 5.17877L12.2501 4.09897L13.5571 3.5805ZM27.2054 0.128633L27.5457 0.732857L26.8196 0.992088L26.4793 0.387865L27.2054 0.128633ZM32.1905 2.20054L32.6261 2.97628L31.7072 3.32322L31.2715 2.54553L32.1905 2.20054ZM27.11 1.55343L27.5457 2.2863L26.6245 2.63129L26.1889 1.89842L27.11 1.55343ZM24.7865 0.214394L25.3176 1.16361L24.1558 1.59631L23.6248 0.647096L24.7865 0.214394ZM24.5915 2.06995L23.5749 2.45977L24.0604 3.27839L24.9318 2.9334L25.3674 3.71109L26.3839 3.32322L25.8984 2.50265L25.0271 2.84764L24.5915 2.06995ZM22.656 1.25132L23.2845 2.32918L21.9797 2.84764L21.349 1.76783L20.0919 2.24342L19.4612 1.16361L20.7681 0.647096L21.3988 1.72495L22.656 1.25132ZM17.6709 2.11477L18.2994 3.19263L16.9924 3.71109L16.3639 2.63129L17.6709 2.11477ZM20.1396 2.20054L20.7681 3.27839L19.4612 3.79686L18.8326 2.719L20.1396 2.20054ZM22.8489 4.44396L23.4796 5.52377L22.1726 6.04223L21.5441 4.96242L22.8489 4.44396ZM24.8819 4.61743L25.2699 5.30741L24.5915 5.56665L24.9794 6.21375L24.1558 6.51586L23.77 5.82588L24.4463 5.56665L24.0604 4.91954L24.8819 4.61743ZM28.2219 3.14975L28.7074 4.01321L27.6909 4.40108L27.2054 3.53762L28.2219 3.14975ZM26.9648 5.13589L27.3029 5.74012L26.5768 6.04223L26.2387 5.438L26.9648 5.13589ZM22.0274 6.04223L22.656 7.12009L21.349 7.63855L20.7204 6.55874L22.0274 6.04223ZM18.7351 4.3582L19.3658 5.438L18.0588 5.95452L17.4281 4.87666L18.7351 4.3582ZM19.9943 5.65241L20.6229 6.73221L19.3159 7.25068L18.6874 6.17087L19.9943 5.65241Z" fill="url(#paint0_linear_202_1621)"/>
<mask id="mask0_202_1621" style="mask-type:luminance" maskUnits="userSpaceOnUse" x="1" y="14" width="34" height="27">
<path d="M1.18091 14.2926H34.4727V40.0247H1.18091V14.2926Z" fill="white"/>
</mask>
<g mask="url(#mask0_202_1621)">
<path fill-rule="evenodd" clip-rule="evenodd" d="M30.4016 31.4603C31.611 30.3396 32.5321 29.1312 33.1607 27.9227C34.8556 24.5566 34.1772 21.0599 31.0323 18.4715C30.692 18.1694 30.3062 17.9101 29.8705 17.608C29.6755 17.4774 29.5302 17.3917 29.3373 17.3059C29.3373 17.3059 29.3373 17.3059 29.3373 17.3488C27.8852 16.5711 25.9973 16.0098 23.8667 15.4932C21.9312 14.889 19.56 14.544 16.7532 14.544C16.7532 14.544 16.7532 14.544 16.8009 14.544C19.8982 14.8013 23.3357 15.4055 26.045 16.7446C28.0304 17.7367 29.6755 19.1186 30.2563 20.9741C30.7418 22.4847 30.4991 24.081 29.773 25.5058C29.0469 27.0164 27.8852 28.3963 26.5305 29.6048C26.5782 29.6925 26.6259 29.8211 26.6757 29.9498C26.7711 30.4682 26.3354 30.9867 25.7069 31.0725C25.0783 31.1582 24.4476 30.8132 24.3522 30.2967C24.2547 29.7783 24.6904 29.2598 25.3189 29.174C25.5617 29.174 25.8044 29.174 26.045 29.2598C27.3043 28.0942 28.466 26.7571 29.1444 25.3323C29.773 23.9953 30.0634 22.5276 29.5801 21.1457C28.9992 19.4207 27.4972 18.1245 25.6592 17.263C24.1095 16.4853 22.2715 15.9669 20.4314 15.6219C33.7893 20.1107 24.7879 26.6266 14.4297 30.3396L15.0106 31.3746L16.22 30.9009L16.8486 31.9788L15.6392 32.4544L16.3176 33.62L17.527 33.1444L18.1556 34.2242L16.9461 34.6978L17.4793 35.647L18.7364 35.1734L19.3671 36.2512L18.1079 36.7268L18.5912 37.8047C23.2859 35.992 26.8686 34.8713 30.4016 31.548V31.4603ZM0.731552 39.5316L0.295898 38.7559L1.21489 38.4089L1.65054 39.1866L0.731552 39.5316ZM3.15258 36.2084L2.81229 35.6041L3.53838 35.3449L3.87867 35.9491L3.15258 36.2084ZM4.74781 40.0072L4.31432 39.2295L5.23331 38.8845L5.66897 39.6622L4.74781 40.0072ZM4.65244 38.4089L4.31432 37.8047L5.08809 37.5026L5.42621 38.1068L4.65244 38.4089ZM13.2203 35.8634L12.7348 34.9999L13.799 34.612L14.2845 35.4755L13.2203 35.8634ZM12.0087 36.8126L11.6706 36.1655L12.4444 35.8634L12.7847 36.5105L12.0087 36.8126ZM6.83071 39.8337L6.49042 39.2295L7.21651 38.9703L7.5568 39.5745L6.83071 39.8337ZM1.65054 38.1068L1.11952 37.1576L2.28127 36.7268L2.81229 37.676L1.65054 38.1068ZM6.97593 38.4089L6.54028 37.676L7.45927 37.3311L7.89492 38.0639L6.97593 38.4089ZM9.24957 39.7908L8.71855 38.8416L9.88029 38.4089L10.4113 39.3601L9.24957 39.7908ZM9.44464 37.9353L10.4612 37.5474L9.97566 36.7268L9.10435 37.0718L8.6687 36.2941L7.65217 36.6839L8.13767 37.5026L9.00898 37.1576L9.44464 37.9353ZM11.3802 38.7559L10.7516 37.676L12.0586 37.1576L12.6871 38.2374L13.9442 37.7618L14.575 38.8416L13.268 39.3601L12.6394 38.2803L11.3802 38.7559ZM16.3653 37.8495L15.7367 36.7697L17.0437 36.2512L17.6722 37.3311L16.3653 37.8495ZM13.8965 37.7618L13.268 36.6839L14.575 36.1655L15.2035 37.2453L13.8965 37.7618ZM11.1873 35.5613L10.5565 34.4815L11.8635 33.9649L12.4942 35.0428L11.1873 35.5613ZM9.1542 35.3878L8.76623 34.6978L9.44464 34.4386L9.05667 33.7915L9.88029 33.4894L10.2661 34.1793L9.58985 34.4386L9.97566 35.0857L9.1542 35.3878ZM5.81418 36.8555L5.32868 35.992L6.34521 35.6041L6.83071 36.4676L5.81418 36.8555ZM7.0713 34.8713L6.73318 34.2671L7.45927 33.9649L7.79739 34.5692L7.0713 34.8713ZM12.0586 33.9649L11.4278 32.8851L12.7348 32.3667L13.3655 33.4465L12.0586 33.9649ZM15.301 35.647L14.6703 34.5692L15.9773 34.0507L16.608 35.1305L15.301 35.647ZM14.0418 34.3099L13.4132 33.2301L14.7202 32.7136L15.3487 33.7915L14.0418 34.3099ZM13.2203 32.1094L12.5896 31.0296L13.8965 30.5111L14.5251 31.5909L13.2203 32.1094ZM22.2217 32.7136C21.8835 32.8851 21.5454 33.0157 21.4956 33.0157V32.3238L22.2217 32.7136ZM21.7383 32.1952L21.1574 31.1582L22.4644 30.6417L22.9954 31.548L21.7383 32.1523V32.1952ZM17.2366 31.0296L16.608 29.9498L17.915 29.4333L18.5435 30.5111L17.2366 31.0296ZM19.5124 31.9359L18.8816 30.8561L20.1886 30.3396L20.8193 31.4175L19.5124 31.9359ZM18.0602 32.7994L17.4295 31.7196L18.7364 31.2031L19.3671 32.2809L18.0602 32.7994ZM19.1721 34.3528L18.5435 33.273L19.8505 32.7565L20.479 33.8344L19.1721 34.3528ZM20.479 36.4247L19.8505 35.3449L21.1574 34.8284L21.786 35.9063L20.479 36.4247ZM21.3503 34.612L20.7218 33.5322L22.0288 33.0157L22.6573 34.0936L21.3503 34.612Z" fill="url(#paint1_linear_202_1621)"/>
</g>
<defs>
<linearGradient id="paint0_linear_202_1621" x1="16.3131" y1="-7.62939e-06" x2="16.3131" y2="25.506" gradientUnits="userSpaceOnUse">
<stop stop-color="#6A11CB"/>
<stop offset="1" stop-color="#2575FC"/>
</linearGradient>
<linearGradient id="paint1_linear_202_1621" x1="17.1801" y1="14.544" x2="17.1801" y2="40.0072" gradientUnits="userSpaceOnUse">
<stop stop-color="#6A11CB"/>
<stop offset="1" stop-color="#2575FC"/>
</linearGradient>
</defs>
</svg>
